<svg xmlns="http://www.w3.org/2000/svg" viewBox="0 0 64 64">
  <rect width="64" height="64" rx="14" fill="#2c1810"/>
  <!-- Hair -->
  <ellipse cx="32" cy="20" rx="12" ry="11" fill="#3d2314"/>
  <ellipse cx="24" cy="24" rx="5" ry="8" fill="#3d2314"/>
  <ellipse cx="40" cy="24" rx="5" ry="8" fill="#3d2314"/>
  <!-- Face -->
  <ellipse cx="32" cy="22" rx="9" ry="9.5" fill="#f0c8a0"/>
  <!-- Eyes -->
  <ellipse cx="29" cy="22" rx="1.2" ry="1.5" fill="#2c1810"/>
  <ellipse cx="35" cy="22" rx="1.2" ry="1.5" fill="#2c1810"/>
  <!-- Smile -->
  <path d="M29 26 Q32 28.5 35 26" stroke="#2c1810" stroke-width="0.8" fill="none" stroke-linecap="round"/>
  <!-- Body -->
  <path d="M24 31 Q32 33 40 31 L42 44 H22 Z" fill="#d4a574"/>
  <!-- Arms holding book -->
  <path d="M24 34 L20 40 L28 44" stroke="#f0c8a0" stroke-width="3" fill="none" stroke-linecap="round" stroke-linejoin="round"/>
  <path d="M40 34 L44 40 L36 44" stroke="#f0c8a0" stroke-width="3" fill="none" stroke-linecap="round" stroke-linejoin="round"/>
  <!-- Open book -->
  <rect x="22" y="40" width="20" height="14" rx="1" fill="#faf7f2"/>
  <line x1="32" y1="40" x2="32" y2="54" stroke="#d4c5b0" stroke-width="0.8"/>
  <!-- Book pages/lines -->
  <line x1="24" y1="44" x2="30" y2="44" stroke="#d4c5b0" stroke-width="0.5"/>
  <line x1="24" y1="46" x2="30" y2="46" stroke="#d4c5b0" stroke-width="0.5"/>
  <line x1="24" y1="48" x2="29" y2="48" stroke="#d4c5b0" stroke-width="0.5"/>
  <line x1="34" y1="44" x2="40" y2="44" stroke="#d4c5b0" stroke-width="0.5"/>
  <line x1="34" y1="46" x2="40" y2="46" stroke="#d4c5b0" stroke-width="0.5"/>
  <line x1="34" y1="48" x2="39" y2="48" stroke="#d4c5b0" stroke-width="0.5"/>
  <!-- Hair flowing down -->
  <path d="M22 20 Q18 28 20 35" stroke="#3d2314" stroke-width="3" fill="none" stroke-linecap="round"/>
  <path d="M42 20 Q46 28 44 35" stroke="#3d2314" stroke-width="3" fill="none" stroke-linecap="round"/>
</svg>
